<?xml version="1.0" encoding="utf-8"?>
<!-- Generator: Adobe Illustrator 23.0.1, SVG Export Plug-In . SVG Version: 6.00 Build 0)  -->
<svg version="1.1" id="Layer_1" xmlns="http://www.w3.org/2000/svg" xmlns:xlink="http://www.w3.org/1999/xlink" x="0px" y="0px"
	 viewBox="0 0 362.9 102.1" style="enable-background:new 0 0 362.9 102.1;" xml:space="preserve">
<style type="text/css">
	.st0{fill:#231F20;}
	.st1{fill:#ED6B26;}
</style>
<title>Artboard 27 copy</title>
<path class="st0" d="M76.2,65.6c0,4.7-0.8,9.3-2.6,13.7c-1.7,4.3-4.2,8.1-7.6,11.3c-3.6,3.4-7.8,6-12.5,7.7
	c-5.5,2-11.4,2.9-17.3,2.8c-4.9,0.1-9.8-0.5-14.6-1.8c-4.1-1.1-7.9-3.1-11.1-5.8C7.4,90.6,4.9,87,3.5,82.9C1.7,77.8,0.9,72.4,1,67
	V3.1h17.8v65.8c-0.1,3.9,0.3,7.7,1.2,11.5c0.6,2.5,1.8,4.7,3.6,6.6c1.7,1.6,3.7,2.6,6,3c2.7,0.5,5.4,0.7,8.2,0.7
	c3.3,0.1,6.6-0.4,9.8-1.2c2.4-0.7,4.7-1.8,6.7-3.3c2-1.6,3.3-4,3.5-6.6c0.5-3.6,0.7-7.2,0.7-10.9V3.1h17.8V65.6z"/>
<path class="st0" d="M132.3,99.1V57.8c0-3.7-0.6-6.4-1.8-8.1c-1.2-1.7-3.2-2.6-5.9-2.6c-1.1,0-2.3,0.2-3.4,0.4
	c-1.3,0.3-2.5,0.7-3.7,1.2c-1.2,0.5-2.4,1.1-3.7,1.7c-1.1,0.6-2.3,1.3-3.3,2.1v46.7H93.1V37.5h15.6l1.6,7.2h0.2
	c1.2-0.8,2.7-1.7,4.3-2.7c1.8-1,3.7-1.9,5.6-2.8c2-0.9,4.1-1.6,6.2-2.2c2.1-0.6,4.2-0.9,6.3-0.9c2.2,0,4.5,0.4,6.6,1.2
	c2,0.8,3.8,1.9,5.4,3.4c1.6,1.6,2.8,3.5,3.6,5.7c1,2.6,1.4,5.3,1.4,8v44.7H132.3z"/>
<path class="st0" d="M173.7,2.6l11.1,11.5l-11.1,11.6l-11-11.6L173.7,2.6z M182.8,99.1h-17.5V37.5h17.5V99.1z"/>
<path class="st1" d="M221.3,55l2.4-0.5c2.3-0.5,4.5-1.2,6.6-2.1c2.1-0.9,3.9-2.2,5.4-3.9c1.6-2,2.9-4.3,3.6-6.8
	c1-3.5,1.4-7.1,1.3-10.7c0-6.5-1.4-11.2-4.2-14.2c-2.9-3-6.9-4.6-11-4.4c-1.1,0-2.3,0-3.4,0.1c-1.2,0.1-2.4,0.2-3.6,0.4v86.8h-17.8
	V3.6c1.9-0.1,3.9-0.3,6.1-0.4s4.5-0.3,6.9-0.4s4.7-0.2,7.1-0.2s4.7,0,6.9,0c4.8-0.1,9.5,0.5,14.1,1.9c3.6,1.1,7,3,9.9,5.5
	c2.6,2.4,4.6,5.3,5.8,8.6c1.3,3.7,2,7.6,1.9,11.5c0,4.3-0.7,8.5-2.1,12.6c-1.4,3.9-3.6,7.4-6.4,10.3c-3.1,3.1-6.9,5.5-11.1,6.9
	c-5.1,1.8-10.6,2.6-16,2.5h-0.8L221.3,55z"/>
<path class="st1" d="M278.4,2.6l11.1,11.5l-11.1,11.6l-11-11.6L278.4,2.6z M287.5,99.1H270V37.5h17.5L287.5,99.1z"/>
<path class="st1" d="M342.5,99.1V57.8c0-3.7-0.6-6.4-1.8-8.1c-1.2-1.7-3.1-2.6-6-2.6c-1.1,0-2.3,0.2-3.4,0.4
	c-1.3,0.3-2.5,0.7-3.7,1.2c-1.2,0.5-2.5,1.1-3.7,1.7c-1.1,0.6-2.2,1.3-3.3,2.1v46.7h-17.5V37.5h15.6l1.6,7.2h0.2
	c1.2-0.8,2.6-1.7,4.4-2.7c1.8-1,3.7-1.9,5.6-2.8c2-0.9,4.1-1.6,6.2-2.2c2-0.6,4.2-0.9,6.3-0.9c2.2,0,4.5,0.4,6.6,1.2
	c2,0.8,3.8,1.9,5.4,3.4c1.6,1.6,2.8,3.5,3.6,5.7c0.9,2.6,1.4,5.3,1.4,8v44.7H342.5z"/>
<path class="st1" d="M360,14.3c0.2,6.7-5.1,12.2-11.8,12.4c-6.7,0.2-12.2-5.1-12.4-11.8c-0.2-6.7,5.1-12.2,11.8-12.4
	c0.1,0,0.3,0,0.4,0c6.5-0.1,11.9,5.1,12,11.7C360,14.3,360,14.3,360,14.3z M338.8,14.3c-0.2,5,3.8,9.2,8.8,9.4c0.1,0,0.2,0,0.4,0
	c5,0,9-4,9-9c0-0.1,0-0.2,0-0.3c0-5.2-3.8-9.5-9-9.5c-5.1,0-9.2,4.1-9.2,9.1C338.8,14.1,338.8,14.2,338.8,14.3z M346.1,20.5h-2.7
	V8.7c1.5-0.3,3-0.4,4.5-0.4c1.4-0.1,2.8,0.2,4.1,0.9c0.8,0.6,1.2,1.6,1.1,2.6c-0.1,1.4-1.1,2.5-2.4,2.7v0.1c1.2,0.5,2,1.6,2.2,2.9
	c0.1,1,0.4,2,0.9,2.9h-2.9c-0.5-0.9-0.8-1.9-0.9-2.9c-0.2-1.3-0.9-1.9-2.4-1.9h-1.3L346.1,20.5z M346.1,13.8h1.3
	c1.5,0,2.7-0.5,2.7-1.7s-0.8-1.8-2.5-1.8c-0.5,0-1,0-1.5,0.1L346.1,13.8z"/>
</svg>
